<?xml version="1.0" encoding="us-ascii" standalone="no"?><svg xmlns="http://www.w3.org/2000/svg" xmlns:xlink="http://www.w3.org/1999/xlink" contentStyleType="text/css" height="1616px" preserveAspectRatio="none" style="width:719px;height:1616px;background:#FFFFFF;" version="1.1" viewBox="0 0 719 1616" width="719px" zoomAndPan="magnify"><defs/><g><!--cluster Auth--><g id="cluster_Auth"><path d="M272.5,6 L312.5,6 A3.75,3.75 0 0 1 315,8.5 L322,28.2969 L457.5,28.2969 A2.5,2.5 0 0 1 460,30.7969 L460,222.5 A2.5,2.5 0 0 1 457.5,225 L272.5,225 A2.5,2.5 0 0 1 270,222.5 L270,8.5 A2.5,2.5 0 0 1 272.5,6 " fill="none" style="stroke:#000000;stroke-width:1.5;"/><line style="stroke:#000000;stroke-width:1.5;" x1="270" x2="322" y1="28.2969" y2="28.2969"/><text fill="#000000" font-family="sans-serif" font-size="14" font-weight="bold" lengthAdjust="spacing" textLength="39" x="274" y="20.9951">Auth</text></g><!--cluster Histories--><g id="cluster_Histories"><path d="M230.5,249 L304.5,249 A3.75,3.75 0 0 1 307,251.5 L314,271.2969 L499.5,271.2969 A2.5,2.5 0 0 1 502,273.7969 L502,595.5 A2.5,2.5 0 0 1 499.5,598 L230.5,598 A2.5,2.5 0 0 1 228,595.5 L228,251.5 A2.5,2.5 0 0 1 230.5,249 " fill="none" style="stroke:#000000;stroke-width:1.5;"/><line style="stroke:#000000;stroke-width:1.5;" x1="228" x2="314" y1="271.2969" y2="271.2969"/><text fill="#000000" font-family="sans-serif" font-size="14" font-weight="bold" lengthAdjust="spacing" textLength="73" x="232" y="263.9951">Histories</text></g><!--cluster FirewallObject--><g id="cluster_FirewallObject"><path d="M253,622 L370,622 A3.75,3.75 0 0 1 372.5,624.5 L379.5,644.2969 L477,644.2969 A2.5,2.5 0 0 1 479.5,646.7969 L479.5,944.5 A2.5,2.5 0 0 1 477,947 L253,947 A2.5,2.5 0 0 1 250.5,944.5 L250.5,624.5 A2.5,2.5 0 0 1 253,622 " fill="none" style="stroke:#000000;stroke-width:1.5;"/><line style="stroke:#000000;stroke-width:1.5;" x1="250.5" x2="379.5" y1="644.2969" y2="644.2969"/><text fill="#000000" font-family="sans-serif" font-size="14" font-weight="bold" lengthAdjust="spacing" textLength="116" x="254.5" y="636.9951">FirewallObject</text></g><!--cluster Rule--><g id="cluster_Rule"><path d="M283,971 L319,971 A3.75,3.75 0 0 1 321.5,973.5 L328.5,993.2969 L447,993.2969 A2.5,2.5 0 0 1 449.5,995.7969 L449.5,1248.5 A2.5,2.5 0 0 1 447,1251 L283,1251 A2.5,2.5 0 0 1 280.5,1248.5 L280.5,973.5 A2.5,2.5 0 0 1 283,971 " fill="none" style="stroke:#000000;stroke-width:1.5;"/><line style="stroke:#000000;stroke-width:1.5;" x1="280.5" x2="328.5" y1="993.2969" y2="993.2969"/><text fill="#000000" font-family="sans-serif" font-size="14" font-weight="bold" lengthAdjust="spacing" textLength="35" x="284.5" y="985.9951">Rule</text></g><!--cluster RuleSetRequest--><g id="cluster_RuleSetRequest"><path d="M247.5,1275 L376.5,1275 A3.75,3.75 0 0 1 379,1277.5 L386,1297.2969 L482.5,1297.2969 A2.5,2.5 0 0 1 485,1299.7969 L485,1606.5 A2.5,2.5 0 0 1 482.5,1609 L247.5,1609 A2.5,2.5 0 0 1 245,1606.5 L245,1277.5 A2.5,2.5 0 0 1 247.5,1275 " fill="none" style="stroke:#000000;stroke-width:1.5;"/><line style="stroke:#000000;stroke-width:1.5;" x1="245" x2="386" y1="1297.2969" y2="1297.2969"/><text fill="#000000" font-family="sans-serif" font-size="14" font-weight="bold" lengthAdjust="spacing" textLength="128" x="249" y="1289.9951">RuleSetRequest</text></g><g id="elem_view_permission"><ellipse cx="364.9652" cy="126.193" fill="#F1F1F1" rx="78.9652" ry="18.193" style="stroke:#181818;stroke-width:0.5;"/><text fill="#000000" font-family="sans-serif" font-size="14" lengthAdjust="spacing" textLength="116" x="304.9" y="129.6886">View Permission</text></g><g id="elem_view_group"><ellipse cx="365.113" cy="57.1226" fill="#F1F1F1" rx="66.113" ry="15.6226" style="stroke:#181818;stroke-width:0.5;"/><text fill="#000000" font-family="sans-serif" font-size="14" lengthAdjust="spacing" textLength="82" x="321.113" y="60.8702">View Group</text></g><g id="elem_view_user"><ellipse cx="365.0597" cy="193.782" fill="#F1F1F1" rx="61.5597" ry="14.782" style="stroke:#181818;stroke-width:0.5;"/><text fill="#000000" font-family="sans-serif" font-size="14" lengthAdjust="spacing" textLength="69" x="327.5597" y="197.5295">View User</text></g><g id="elem_view_historicalfirewallobject"><ellipse cx="365.1274" cy="383.0255" fill="#F1F1F1" rx="115.6274" ry="25.5255" style="stroke:#181818;stroke-width:0.5;"/><text fill="#000000" font-family="sans-serif" font-size="14" lengthAdjust="spacing" textLength="198" x="266.1274" y="385.8722">View FirewallObject-History</text></g><g id="elem_view_historicalrule"><ellipse cx="365.1379" cy="303.0276" fill="#F1F1F1" rx="83.1379" ry="19.0276" style="stroke:#181818;stroke-width:0.5;"/><text fill="#000000" font-family="sans-serif" font-size="14" lengthAdjust="spacing" textLength="126" x="301.5914" y="306.0594">View Rule-History</text></g><g id="elem_view_historicalrule_firewalls"><ellipse cx="364.8004" cy="557.0601" fill="#F1F1F1" rx="113.3004" ry="25.0601" style="stroke:#181818;stroke-width:0.5;"/><text fill="#000000" font-family="sans-serif" font-size="14" lengthAdjust="spacing" textLength="193" x="268.3004" y="559.9068">View Rule-Firewalls-History</text></g><g id="elem_view_historicalrulesetrequest"><ellipse cx="365.241" cy="470.1482" fill="#F1F1F1" rx="121.241" ry="26.6482" style="stroke:#181818;stroke-width:0.5;"/><text fill="#000000" font-family="sans-serif" font-size="14" lengthAdjust="spacing" textLength="210" x="260.241" y="472.9949">View RuleSetRequest-History</text></g><g id="elem_add_firewallobject"><ellipse cx="365.0368" cy="755.8074" fill="#F1F1F1" rx="87.0368" ry="19.8074" style="stroke:#181818;stroke-width:0.5;"/><text fill="#000000" font-family="sans-serif" font-size="14" lengthAdjust="spacing" textLength="135" x="297.5368" y="758.654">Add FirewallObject</text></g><g id="elem_change_firewallobject"><ellipse cx="365.1147" cy="679.1229" fill="#F1F1F1" rx="98.6147" ry="22.1229" style="stroke:#181818;stroke-width:0.5;"/><text fill="#000000" font-family="sans-serif" font-size="14" lengthAdjust="spacing" textLength="161" x="284.6147" y="681.9696">Change FirewallObject</text></g><g id="elem_delete_firewallobject"><ellipse cx="364.8591" cy="909.1718" fill="#F1F1F1" rx="96.3591" ry="21.6718" style="stroke:#181818;stroke-width:0.5;"/><text fill="#000000" font-family="sans-serif" font-size="14" lengthAdjust="spacing" textLength="156" x="286.8591" y="912.0185">Delete FirewallObject</text></g><g id="elem_view_firewallobject"><ellipse cx="365.1728" cy="831.8346" fill="#F1F1F1" rx="89.6728" ry="20.3346" style="stroke:#181818;stroke-width:0.5;"/><text fill="#000000" font-family="sans-serif" font-size="14" lengthAdjust="spacing" textLength="141" x="294.6728" y="834.6812">View FirewallObject</text></g><g id="elem_add_rule"><ellipse cx="365.0799" cy="1152.7511" fill="#F1F1F1" rx="57.0799" ry="14.7511" style="stroke:#181818;stroke-width:0.5;"/><text fill="#000000" font-family="sans-serif" font-size="14" lengthAdjust="spacing" textLength="63" x="330.5799" y="1156.4987">Add Rule</text></g><g id="elem_change_rule"><ellipse cx="365.1011" cy="1022.1202" fill="#F1F1F1" rx="68.6011" ry="16.1202" style="stroke:#181818;stroke-width:0.5;"/><text fill="#000000" font-family="sans-serif" font-size="14" lengthAdjust="spacing" textLength="89" x="317.6011" y="1025.8678">Change Rule</text></g><g id="elem_delete_rule"><ellipse cx="364.8142" cy="1218.7628" fill="#F1F1F1" rx="66.8142" ry="15.7628" style="stroke:#181818;stroke-width:0.5;"/><text fill="#000000" font-family="sans-serif" font-size="14" lengthAdjust="spacing" textLength="84" x="319.8142" y="1222.5104">Delete Rule</text></g><g id="elem_view_rule"><ellipse cx="365.0597" cy="1087.782" fill="#F1F1F1" rx="61.5597" ry="14.782" style="stroke:#181818;stroke-width:0.5;"/><text fill="#000000" font-family="sans-serif" font-size="14" lengthAdjust="spacing" textLength="69" x="327.5597" y="1091.5295">View Rule</text></g><g id="elem_add_rulesetrequest"><ellipse cx="364.8318" cy="1490.8664" fill="#F1F1F1" rx="92.3318" ry="20.8664" style="stroke:#181818;stroke-width:0.5;"/><text fill="#000000" font-family="sans-serif" font-size="14" lengthAdjust="spacing" textLength="147" x="291.3318" y="1493.713">Add RuleSetRequest</text></g><g id="elem_change_rulesetrequest"><ellipse cx="365.0751" cy="1333.215" fill="#F1F1F1" rx="104.0751" ry="23.215" style="stroke:#181818;stroke-width:0.5;"/><text fill="#000000" font-family="sans-serif" font-size="14" lengthAdjust="spacing" textLength="173" x="278.5751" y="1336.0617">Change RuleSetRequest</text></g><g id="elem_delete_rulesetrequest"><ellipse cx="364.7923" cy="1569.7585" fill="#F1F1F1" rx="101.7923" ry="22.7585" style="stroke:#181818;stroke-width:0.5;"/><text fill="#000000" font-family="sans-serif" font-size="14" lengthAdjust="spacing" textLength="168" x="280.7923" y="1572.6051">Delete RuleSetRequest</text></g><g id="elem_view_rulesetrequest"><ellipse cx="365.0118" cy="1412.9024" fill="#F1F1F1" rx="95.0118" ry="21.4024" style="stroke:#181818;stroke-width:0.5;"/><text fill="#000000" font-family="sans-serif" font-size="14" lengthAdjust="spacing" textLength="153" x="288.5118" y="1415.749">View RuleSetRequest</text></g><!--entity nwadmin--><g id="elem_nwadmin"><ellipse cx="674" cy="810" fill="#CD5C5C" rx="16" ry="16" style="stroke:#181818;stroke-width:0.5;"/><path d="M674,830 C678,830 681,830 685,826 C693,826 701,834 701,842 L701,846 C701,850 697,854 693,854 L655,854 C651,854 647,850 647,846 L647,842 C647,834 655,826 663,826 C667,830 670,830 674,830 " fill="#CD5C5C" style="stroke:#181818;stroke-width:0.5;"/><text fill="#000000" font-family="sans-serif" font-size="14" lengthAdjust="spacing" textLength="76" x="636" y="867.4951">NW-Admin</text></g><!--entity user--><g id="elem_user"><ellipse cx="50" cy="810" fill="#98FB98" rx="16" ry="16" style="stroke:#181818;stroke-width:0.5;"/><path d="M50,830 C54,830 57,830 61,826 C69,826 77,834 77,842 L77,846 C77,850 73,854 69,854 L31,854 C27,854 23,850 23,846 L23,842 C23,834 31,826 39,826 C43,830 46,830 50,830 " fill="#98FB98" style="stroke:#181818;stroke-width:0.5;"/><text fill="#000000" font-family="sans-serif" font-size="14" lengthAdjust="spacing" textLength="88" x="6" y="867.4951">Normal-User</text></g><!--entity auditor--><g id="elem_auditor"><ellipse cx="50" cy="535" fill="#ADD8E6" rx="16" ry="16" style="stroke:#181818;stroke-width:0.5;"/><path d="M50,555 C54,555 57,555 61,551 C69,551 77,559 77,567 L77,571 C77,575 73,579 69,579 L31,579 C27,579 23,575 23,571 L23,567 C23,559 31,551 39,551 C43,555 46,555 50,555 " fill="#ADD8E6" style="stroke:#181818;stroke-width:0.5;"/><text fill="#000000" font-family="sans-serif" font-size="14" lengthAdjust="spacing" textLength="53" x="23.5" y="592.4951">Auditor</text></g><!--reverse link view_permission to nwadmin--><g id="link_view_permission_nwadmin"><path d="M448.7399,130.3841 C473.0399,135.1041 492.264,143.26 510,161 C601.226,252.24 654.28,664.429 668.859,793.342 " fill="none" id="view_permission-backto-nwadmin" style="stroke:#FF0000;stroke-width:2.0;"/><polygon fill="#FF0000" points="442.85,129.24,450.9222,134.8827,447.7583,130.1934,452.4476,127.0295,442.85,129.24" style="stroke:#FF0000;stroke-width:2.0;"/></g><!--reverse link view_group to nwadmin--><g id="link_view_group_nwadmin"><path d="M437.0899,57.804 C464.8369,61.224 489.509,69.32 510,90 C610.846,191.76 657.919,655.179 669.858,793.139 " fill="none" id="view_group-backto-nwadmin" style="stroke:#FF0000;stroke-width:2.0;"/><polygon fill="#FF0000" points="431.135,57.07,439.5781,62.1409,436.0974,57.6817,440.5567,54.201,431.135,57.07" style="stroke:#FF0000;stroke-width:2.0;"/></g><!--reverse link view_user to nwadmin--><g id="link_view_user_nwadmin"><path d="M412.5062,207.049 C444.9542,217.939 483.472,235.77 510,268 C642.956,429.51 667.494,694.586 671.998,793.335 " fill="none" id="view_user-backto-nwadmin" style="stroke:#FF0000;stroke-width:2.0;"/><polygon fill="#FF0000" points="406.818,205.14,414.0776,211.7957,411.5582,206.7309,416.623,204.2114,406.818,205.14" style="stroke:#FF0000;stroke-width:2.0;"/></g><!--reverse link view_historicalfirewallobject to nwadmin--><g id="link_view_historicalfirewallobject_nwadmin"><path d="M465.2782,399.6591 C483.6022,405.9891 495.833,413.08 510,426 C620.538,526.85 657.476,712.91 668.631,793.315 " fill="none" id="view_historicalfirewallobject-backto-nwadmin" style="stroke:#FF0000;stroke-width:2.0;"/><polygon fill="#FF0000" points="459.607,397.7,466.8077,404.4194,464.333,399.3326,469.4198,396.8579,459.607,397.7" style="stroke:#FF0000;stroke-width:2.0;"/></g><!--reverse link view_historicalrule to nwadmin--><g id="link_view_historicalrule_nwadmin"><path d="M450.1923,310.0208 C473.7413,315.2508 492.172,323.35 510,340 C643.505,464.67 667.774,700.99 672.1,793.498 " fill="none" id="view_historicalrule-backto-nwadmin" style="stroke:#FF0000;stroke-width:2.0;"/><polygon fill="#FF0000" points="444.335,308.72,452.2537,314.5761,449.2161,309.804,453.9882,306.7664,444.335,308.72" style="stroke:#FF0000;stroke-width:2.0;"/></g><!--reverse link view_historicalrule_firewalls to nwadmin--><g id="link_view_historicalrule_firewalls_nwadmin"><path d="M418.9935,582.3704 C448.3665,597.5204 480.576,616.41 510,641 C564.855,686.849 616.323,752.341 646.23,793.491 " fill="none" id="view_historicalrule_firewalls-backto-nwadmin" style="stroke:#FF0000;stroke-width:2.0;"/><polygon fill="#FF0000" points="413.661,579.62,419.8261,587.3006,418.1047,581.912,423.4933,580.1906,413.661,579.62" style="stroke:#FF0000;stroke-width:2.0;"/></g><!--reverse link view_historicalrulesetrequest to nwadmin--><g id="link_view_historicalrulesetrequest_nwadmin"><path d="M465.1516,488.6495 C483.2756,495.0195 495.466,501.84 510,514 C599.799,589.15 645.789,726.355 663.755,793.254 " fill="none" id="view_historicalrulesetrequest-backto-nwadmin" style="stroke:#FF0000;stroke-width:2.0;"/><polygon fill="#FF0000" points="459.491,486.66,466.6555,493.418,464.2081,488.3179,469.3082,485.8705,459.491,486.66" style="stroke:#FF0000;stroke-width:2.0;"/></g><!--reverse link add_firewallobject to nwadmin--><g id="link_add_firewallobject_nwadmin"><path d="M430.6532,772.0058 C492.8102,787.3928 583.118,809.749 635.627,822.748 " fill="none" id="add_firewallobject-backto-nwadmin" style="stroke:#FF0000;stroke-width:2.0;"/><polygon fill="#FF0000" points="424.829,770.564,432.6041,776.6095,429.6825,771.7655,434.5265,768.8439,424.829,770.564" style="stroke:#FF0000;stroke-width:2.0;"/></g><!--reverse link change_firewallobject to nwadmin--><g id="link_change_firewallobject_nwadmin"><path d="M444.9576,695.1014 C468.2126,701.1034 487.828,707.632 510,718 C556.61,739.795 604.181,774.838 635.805,800.324 " fill="none" id="change_firewallobject-backto-nwadmin" style="stroke:#FF0000;stroke-width:2.0;"/><polygon fill="#FF0000" points="439.148,693.602,446.8628,699.7242,443.9894,694.8515,448.8621,691.9781,439.148,693.602" style="stroke:#FF0000;stroke-width:2.0;"/></g><!--reverse link delete_firewallobject to nwadmin--><g id="link_delete_firewallobject_nwadmin"><path d="M435.8037,891.4923 C498.0107,875.8893 584.55,854.185 635.628,841.373 " fill="none" id="delete_firewallobject-backto-nwadmin" style="stroke:#FF0000;stroke-width:2.0;"/><polygon fill="#FF0000" points="429.984,892.952,439.6867,894.6422,434.8338,891.7356,437.7404,886.8826,429.984,892.952" style="stroke:#FF0000;stroke-width:2.0;"/></g><!--reverse link view_firewallobject to nwadmin--><g id="link_view_firewallobject_nwadmin"><path d="M460.797,832 C520.83,832 591.024,832 635.66,832 " fill="none" id="view_firewallobject-backto-nwadmin" style="stroke:#FF0000;stroke-width:2.0;"/><polygon fill="#FF0000" points="454.797,832,463.797,836,459.797,832,463.797,828,454.797,832" style="stroke:#FF0000;stroke-width:2.0;"/></g><!--reverse link add_rule to nwadmin--><g id="link_add_rule_nwadmin"><path d="M427.6887,1150.0559 C456.4297,1146.4639 484.706,1138.853 510,1120 C595.565,1056.223 642.776,933.373 662.243,870.752 " fill="none" id="add_rule-backto-nwadmin" style="stroke:#FF0000;stroke-width:2.0;"/><polygon fill="#FF0000" points="421.735,1150.8,431.1616,1153.653,426.6964,1150.1799,430.1695,1145.7148,421.735,1150.8" style="stroke:#FF0000;stroke-width:2.0;"/></g><!--reverse link change_rule to nwadmin--><g id="link_change_rule_nwadmin"><path d="M401.8322,1005.0182 C431.4312,990.7002 471.969,970.176 510,947 C554.657,919.786 603.343,884.666 635.768,860.434 " fill="none" id="change_rule-backto-nwadmin" style="stroke:#FF0000;stroke-width:2.0;"/><polygon fill="#FF0000" points="396.431,1007.631,406.2747,1007.3127,400.932,1005.4537,402.791,1000.111,396.431,1007.631" style="stroke:#FF0000;stroke-width:2.0;"/></g><!--reverse link delete_rule to nwadmin--><g id="link_delete_rule_nwadmin"><path d="M436.9373,1215.0775 C463.8443,1210.9095 487.92,1203.04 510,1185 C610.889,1102.571 652.301,943.793 666.574,870.637 " fill="none" id="delete_rule-backto-nwadmin" style="stroke:#FF0000;stroke-width:2.0;"/><polygon fill="#FF0000" points="431.008,1215.996,440.5142,1218.5712,435.9491,1215.2306,439.2896,1210.6654,431.008,1215.996" style="stroke:#FF0000;stroke-width:2.0;"/></g><!--reverse link view_rule to nwadmin--><g id="link_view_rule_nwadmin"><path d="M430.3219,1083.2016 C458.0909,1079.0776 484.725,1071.648 510,1055 C580.285,1008.706 630.808,921.081 655.633,870.551 " fill="none" id="view_rule-backto-nwadmin" style="stroke:#FF0000;stroke-width:2.0;"/><polygon fill="#FF0000" points="424.387,1084.083,433.877,1086.7175,429.3328,1083.3485,432.7018,1078.8043,424.387,1084.083" style="stroke:#FF0000;stroke-width:2.0;"/></g><!--reverse link add_rulesetrequest to nwadmin--><g id="link_add_rulesetrequest_nwadmin"><path d="M456.8294,1481.7189 C478.4574,1475.9669 494.217,1467.901 510,1452 C593.699,1367.679 651.162,992.774 667.935,870.618 " fill="none" id="add_rulesetrequest-backto-nwadmin" style="stroke:#FF0000;stroke-width:2.0;"/><polygon fill="#FF0000" points="451.031,1483.261,460.7567,1484.8135,455.863,1481.9759,458.7006,1477.0822,451.031,1483.261" style="stroke:#FF0000;stroke-width:2.0;"/></g><!--reverse link change_rulesetrequest to nwadmin--><g id="link_change_rulesetrequest_nwadmin"><path d="M424.7255,1310.7651 C454.8485,1297.2381 485.751,1279.094 510,1251 C610.217,1134.894 652.621,950.164 666.918,870.565 " fill="none" id="change_rulesetrequest-backto-nwadmin" style="stroke:#FF0000;stroke-width:2.0;"/><polygon fill="#FF0000" points="419.252,1313.223,429.1008,1313.1851,423.8132,1311.1747,425.8236,1305.8872,419.252,1313.223" style="stroke:#FF0000;stroke-width:2.0;"/></g><!--reverse link delete_rulesetrequest to nwadmin--><g id="link_delete_rulesetrequest_nwadmin"><path d="M463.0815,1558.4072 C482.6405,1552.3754 495.9,1544.6984 510,1530 C603.039,1433.015 655.117,1002.776 669.119,870.694 " fill="none" id="delete_rulesetrequest-backto-nwadmin" style="stroke:#FF0000;stroke-width:2.0;"/><polygon fill="#FF0000" points="457.348,1560.1754,467.1271,1561.3455,462.126,1558.7019,464.7695,1553.7008,457.348,1560.1754" style="stroke:#FF0000;stroke-width:2.0;"/></g><!--reverse link view_rulesetrequest to nwadmin--><g id="link_view_rulesetrequest_nwadmin"><path d="M457.2241,1402.4498 C478.5991,1396.5268 494.144,1388.516 510,1373 C653.904,1232.185 671.834,969.406 673.288,870.752 " fill="none" id="view_rulesetrequest-backto-nwadmin" style="stroke:#FF0000;stroke-width:2.0;"/><polygon fill="#FF0000" points="451.442,1404.052,461.1833,1405.5034,456.2604,1402.7168,459.047,1397.7939,451.442,1404.052" style="stroke:#FF0000;stroke-width:2.0;"/></g><!--link auditor to view_user--><g id="link_auditor_view_user"><path d="M65.3527,518.24 C89.3048,458.03 142.558,341.34 220,268 C251.124,238.53 290.6537,220.0292 322.0677,208.1692 " fill="none" id="auditor-to-view_user" style="stroke:#0000FF;stroke-width:2.0;"/><polygon fill="#0000FF" points="327.681,206.05,317.8483,205.4867,323.0033,207.816,320.6739,212.971,327.681,206.05" style="stroke:#0000FF;stroke-width:2.0;"/></g><!--link auditor to view_firewallobject--><g id="link_auditor_view_firewallobject"><path d="M68.2007,595.57 C93.6929,648.256 146.525,741.983 220,793 C239.892,806.812 258.6405,814.2885 281.8185,820.0545 " fill="none" id="auditor-to-view_firewallobject" style="stroke:#0000FF;stroke-width:2.0;"/><polygon fill="#0000FF" points="287.641,821.503,279.8728,815.4486,282.7889,820.2959,277.9415,823.212,287.641,821.503" style="stroke:#0000FF;stroke-width:2.0;"/></g><!--link auditor to view_historicalrule--><g id="link_auditor_view_historicalrule"><path d="M70.5228,518.49 C97.4125,469.43 150.515,385.55 220,340 C241.263,326.06 261.6259,318.6806 285.8399,313.2606 " fill="none" id="auditor-to-view_historicalrule" style="stroke:#0000FF;stroke-width:2.0;"/><polygon fill="#0000FF" points="291.695,311.95,282.0386,310.0125,286.8157,313.0422,283.7861,317.8193,291.695,311.95" style="stroke:#0000FF;stroke-width:2.0;"/></g><!--link auditor to view_historicalrule_firewalls--><g id="link_auditor_view_historicalrule_firewalls"><path d="M77.6862,557 C115.976,557 182.793,557 245.407,557 " fill="none" id="auditor-to-view_historicalrule_firewalls" style="stroke:#0000FF;stroke-width:2.0;"/><polygon fill="#0000FF" points="251.407,557,242.407,553,246.407,557,242.407,561,251.407,557" style="stroke:#0000FF;stroke-width:2.0;"/></g><!--link auditor to view_rule--><g id="link_auditor_view_rule"><path d="M59.0812,595.86 C81.8436,701.684 149.441,991.288 220,1055 C242.558,1075.369 269.1271,1083.2502 297.5631,1086.5942 " fill="none" id="auditor-to-view_rule" style="stroke:#0000FF;stroke-width:2.0;"/><polygon fill="#0000FF" points="303.522,1087.295,295.0508,1082.2712,298.5562,1086.711,294.1164,1090.2165,303.522,1087.295" style="stroke:#0000FF;stroke-width:2.0;"/></g><!--link auditor to view_historicalrulesetrequest--><g id="link_auditor_view_historicalrulesetrequest"><path d="M77.6862,549.58 C124.107,536.68 215.4952,511.2768 283.7072,492.3168 " fill="none" id="auditor-to-view_historicalrulesetrequest" style="stroke:#0000FF;stroke-width:2.0;"/><polygon fill="#0000FF" points="289.488,490.71,279.7455,489.2663,284.6706,492.049,281.888,496.9741,289.488,490.71" style="stroke:#0000FF;stroke-width:2.0;"/></g><!--link auditor to view_rulesetrequest--><g id="link_auditor_view_rulesetrequest"><path d="M58.7339,595.7 C90.9509,756.724 213.14,1365.666 220,1373 C234.977,1389.012 249.9804,1397.1854 271.0994,1403.1294 " fill="none" id="auditor-to-view_rulesetrequest" style="stroke:#0000FF;stroke-width:2.0;"/><polygon fill="#0000FF" points="276.875,1404.755,269.2953,1398.4663,272.062,1403.4004,267.1279,1406.1671,276.875,1404.755" style="stroke:#0000FF;stroke-width:2.0;"/></g><!--link user to view_user--><g id="link_user_view_user"><path d="M58.5193,793.129 C81.12,679.518 151.137,350.82 220,268 C246.775,235.8 285.4772,217.9232 317.9052,207.0132 " fill="none" id="user-to-view_user" style="stroke:#008000;stroke-width:2.0;"/><polygon fill="#008000" points="323.592,205.1,313.7863,204.1787,318.853,206.6944,316.3373,211.7611,323.592,205.1" style="stroke:#008000;stroke-width:2.0;"/></g><!--link user to view_firewallobject--><g id="link_user_view_firewallobject"><path d="M94.1927,832 C140.73,832 210.079,832 269.338,832 " fill="none" id="user-to-view_firewallobject" style="stroke:#008000;stroke-width:2.0;"/><polygon fill="#008000" points="275.338,832,266.338,828,270.338,832,266.338,836,275.338,832" style="stroke:#008000;stroke-width:2.0;"/></g><!--link user to view_historicalrule--><g id="link_user_view_historicalrule"><path d="M59.3189,793.317 C82.5587,688.696 151,403.73 220,340 C237.919,323.45 256.3743,315.3835 279.9173,310.1435 " fill="none" id="user-to-view_historicalrule" style="stroke:#008000;stroke-width:2.0;"/><polygon fill="#008000" points="285.774,308.84,276.1199,306.8908,280.8934,309.9263,277.858,314.6998,285.774,308.84" style="stroke:#008000;stroke-width:2.0;"/></g><!--link user to view_historicalrule_firewalls--><g id="link_user_view_historicalrule_firewalls"><path d="M79.3305,793.199 C110.626,752.099 164.041,686.927 220,641 C249.643,616.67 281.8519,597.7847 311.1669,582.5647 " fill="none" id="user-to-view_historicalrule_firewalls" style="stroke:#008000;stroke-width:2.0;"/><polygon fill="#008000" points="316.492,579.8,306.6613,580.397,312.0544,582.1039,310.3475,587.4971,316.492,579.8" style="stroke:#008000;stroke-width:2.0;"/></g><!--link user to add_rule--><g id="link_user_add_rule"><path d="M62.4924,870.521 C83.2315,933.097 133.043,1056.237 220,1120 C245.441,1138.655 273.7246,1146.2467 302.4316,1149.8847 " fill="none" id="user-to-add_rule" style="stroke:#008000;stroke-width:2.0;"/><polygon fill="#008000" points="308.384,1150.639,299.9583,1145.5392,303.4237,1150.0104,298.9525,1153.4758,308.384,1150.639" style="stroke:#008000;stroke-width:2.0;"/></g><!--link user to view_rule--><g id="link_user_view_rule"><path d="M69.3835,870.556 C95.5448,921.092 148.4,1008.724 220,1055 C245.418,1071.428 272.0646,1078.8313 299.8046,1083.0003 " fill="none" id="user-to-view_rule" style="stroke:#008000;stroke-width:2.0;"/><polygon fill="#008000" points="305.738,1083.892,297.4324,1078.5988,300.7935,1083.1489,296.2435,1086.51,305.738,1083.892" style="stroke:#008000;stroke-width:2.0;"/></g><!--link user to view_historicalrulesetrequest--><g id="link_user_view_historicalrulesetrequest"><path d="M61.0092,793.235 C80.2887,726.309 128.944,589.06 220,514 C234.725,501.86 247.0958,495.0461 265.3578,488.6761 " fill="none" id="user-to-view_historicalrulesetrequest" style="stroke:#008000;stroke-width:2.0;"/><polygon fill="#008000" points="271.023,486.7,261.2077,485.8873,266.302,488.3468,263.8425,493.441,271.023,486.7" style="stroke:#008000;stroke-width:2.0;"/></g><!--link user to add_rulesetrequest--><g id="link_user_add_rulesetrequest"><path d="M56.4582,870.633 C74.471,992.832 135.717,1367.854 220,1452 C235.855,1467.829 251.6376,1475.8716 273.2646,1481.6246 " fill="none" id="user-to-add_rulesetrequest" style="stroke:#008000;stroke-width:2.0;"/><polygon fill="#008000" points="279.063,1483.167,271.3937,1476.9878,274.231,1481.8816,269.3372,1484.7189,279.063,1483.167" style="stroke:#008000;stroke-width:2.0;"/></g><!--link user to view_rulesetrequest--><g id="link_user_view_rulesetrequest"><path d="M51.1885,870.787 C53.8478,969.523 74.9341,1232.48 220,1373 C235.934,1388.435 251.5059,1396.4198 272.8809,1402.3428 " fill="none" id="user-to-view_rulesetrequest" style="stroke:#008000;stroke-width:2.0;"/><polygon fill="#008000" points="278.663,1403.945,271.058,1397.6869,273.8446,1402.6098,268.9217,1405.3964,278.663,1403.945" style="stroke:#008000;stroke-width:2.0;"/></g><!--SRC=[bPPDRzmW48Rl_0gqFlHII-aXwgtIgbNRKribIdk8gXLh9hjqCNO0PnLL_U_5-0jZZEqRXkSTpxmms1oUDDO5bknqrfWo2PbcXK18NPWeYIGv9fakvBr-vO395LIHWxCeYRWeAF6xsnlqPfWM1OLw-lqDGiW6mBjllz8zpPdOOQAmk99wZ1CcA2D20ksnGkQ4fmyAf2KhCy19IJYS983ei7r5cHbOX3HZdF2wYYEl0A6IP1To0holz1d_HRYEan45UFUJmHN_09apfKofDiABcJkK_Tm4_oABgXp8K_quWVgKBLFdZVuDYNnbokJ8G0Mo-MnylnBEln__6F_J1dqTOfqRRKRuKqiMbfm4kgiunEJIh8T5NGfgINxeKb31GFUWx-2v0gMN0YdGiY5TcyPMZBtQK-gjDzjFwM7Ubuzd8YPnhIwpAn7f9-2WWr9gLmuBkn4GMXyycLDzxU2qvdgshzJVmhQ-dcchyh6sbXvhAvWz44Es5l5o77OvdEsmFihRsV9m1PxEgIKiTQhof4vzOMdWn8vh7f_Fxi9AgyV4t5PlZmMdlzCFaviZoZNtHXInrqQKcBqCLghiVcvWdORVe7BScrC5-dOE3RVg71tkpcZoAzc-0HSIZJ9kwqMJYXA1dbgHr0ewt3cBYJeiwZx8wMDIVuq39pnAU9iHPRrplO5rpdLKjJMkOyHYNDSq-wDZIFkR4x0iikuP5Y4zkrQJZbbXJTyPaP3RNkbu4t_b8XYm-py0]--></g></svg>